
<svg width="196px" height="83px" viewBox="91 24 196 83" version="1.1" xmlns="http://www.w3.org/2000/svg" xmlns:xlink="http://www.w3.org/1999/xlink">
    <!-- Generator: Sketch 40.3 (33839) - http://www.bohemiancoding.com/sketch -->
    <desc>Created with Sketch.</desc>
    <defs></defs>
    <g id="event-it---Logo-Vorlage-Einzeln---2011-1" stroke="none" stroke-width="1" fill="none" fill-rule="evenodd" transform="translate(91.000000, 24.000000)">
        <polygon id="Fill-1" fill="#84BF41" points="0.33845042 82.4571009 25.4560409 82.4571009 25.4560409 0.09223449 0.33845042 0.09223449"></polygon>
        <polygon id="Fill-2" fill="#D8117D" points="72.8274107 82.4571009 97.8350181 82.4571009 97.8350181 0.09223449 72.8274107 0.09223449"></polygon>
        <polygon id="Fill-3" fill="#00A3DB" points="30.3032673 82.4571009 50.4636483 82.4571009 50.4636483 0.09223449 30.3032673 0.09223449"></polygon>
        <polygon id="Fill-4" fill="#063E5F" points="55.3108747 82.4571009 67.8702012 82.4571009 67.8702012 0.09223449 55.3108747 0.09223449"></polygon>
        <polygon id="Fill-5" fill="#BB1C39" points="102.792759 82.4571009 112.818223 82.4571009 112.818223 0.09223449 102.792759 0.09223449"></polygon>
        <polygon id="Fill-6" fill="#E77A39" points="117.774902 82.4571009 123.393604 82.4571009 123.393604 0.09223449 117.774902 0.09223449"></polygon>
        <polygon id="Fill-7" fill="#84BF41" points="128.24083 82.4571009 130.884675 82.4571009 130.884675 0.09223449 128.24083 0.09223449"></polygon>
        <polygon id="Fill-8" fill="#E77A39" points="150.714575 82.4571009 170.874956 82.4571009 170.874956 0.09223449 150.714575 0.09223449"></polygon>
        <polygon id="Fill-9" fill="#BB1C39" points="175.722183 82.4571009 195.772581 82.4571009 195.772581 0.09223449 175.722183 0.09223449"></polygon>
        <polygon id="Fill-10" fill="#00A3DB" points="135.731901 82.4571009 145.867349 82.4571009 145.867349 0.09223449 135.731901 0.09223449"></polygon>
        <polygon id="Fill-11" fill="#FFFFFF" points="38.6014127 63.03554 157.509618 63.03554 157.509618 23.3541716 38.6014127 23.3541716"></polygon>
        <path d="M49.2320501,48.2481654 C49.2320501,49.2190267 49.5120554,50.0139494 50.072066,50.6334666 C50.6320765,51.2524506 51.4338374,51.5622092 52.4778799,51.5622092 C53.2939864,51.5622092 53.9395394,51.4475826 54.4140076,51.2188624 C54.8879445,50.9912084 55.3624126,50.6382649 55.8368808,50.1621643 L58.0864869,52.3624634 C57.7065936,52.7431306 57.3272316,53.0768808 56.9478695,53.3626478 C56.5674449,53.6484148 56.1551411,53.8909968 55.7088328,54.0909271 C55.2630559,54.2913905 54.7747734,54.4433375 54.2429228,54.5478343 C53.7116034,54.6533975 53.1133379,54.705646 52.4491887,54.705646 C51.576231,54.705646 50.7271827,54.5910193 49.9009811,54.3622991 C49.0758422,54.1335789 48.3447468,53.7294532 47.7092889,53.1483226 C47.0732996,52.5666588 46.5605764,51.7861311 46.1716507,50.8046069 C45.7827249,49.8236158 45.588262,48.5813825 45.588262,47.0757744 C45.588262,45.8569995 45.7444699,44.7763099 46.0579483,43.8326391 C46.3714268,42.8900346 46.8124218,42.0945788 47.3819961,41.4473379 C47.9510392,40.7995639 48.629534,40.3085352 49.4174805,39.9753181 C50.2048958,39.642101 51.0826353,39.4752259 52.0506992,39.4752259 C53.0750829,39.4752259 53.9916087,39.656496 54.7981515,40.018503 C55.6046943,40.3805101 56.2826577,40.8758039 56.8336359,41.5043847 C57.3840827,42.1324322 57.8016997,42.8804379 58.0864869,43.7468024 C58.3712741,44.6136999 58.5131363,45.5621691 58.5131363,46.5906103 L58.5131363,48.2481654 L49.2320501,48.2481654 L49.2320501,48.2481654 Z M54.868817,45.7045194 C54.8502208,45.380899 54.8167477,45.0993972 54.7699916,44.8621466 C54.7216415,44.6232966 54.6414123,44.3711179 54.5271786,44.1045442 C54.3189014,43.665764 54.0102049,43.2994917 53.602683,43.0041281 C53.1940984,42.7092976 52.6771247,42.5616158 52.0506992,42.5616158 C51.424805,42.5616158 50.9067686,42.7092976 50.4992467,43.0041281 C50.0911935,43.2994917 49.7830282,43.665764 49.5736884,44.1045442 C49.4599861,44.3711179 49.3792255,44.6232966 49.3319381,44.8621466 C49.2841194,45.0993972 49.2517089,45.380899 49.2320501,45.7045194 L54.868817,45.7045194 L54.868817,45.7045194 Z M69.7813569,54.5339725 L66.8776967,54.5339725 L61.4114833,39.6468993 L65.3118986,39.6468993 L68.3297925,48.847423 L71.3189951,39.6468993 L75.2194103,39.6468993 L69.7813569,54.5339725 L69.7813569,54.5339725 Z M81.7615454,48.2481654 C81.7615454,49.2190267 82.0415507,50.0139494 82.6015613,50.6334666 C83.1615718,51.2524506 83.9633327,51.5622092 85.0073752,51.5622092 C85.8234817,51.5622092 86.4690347,51.4475826 86.9435029,51.2188624 C87.4174398,50.9912084 87.8919079,50.6382649 88.3663761,50.1621643 L90.6159822,52.3624634 C90.2360889,52.7431306 89.8567269,53.0768808 89.4773648,53.3626478 C89.0974715,53.6484148 88.6846364,53.8909968 88.2383281,54.0909271 C87.7925512,54.2913905 87.3042687,54.4433375 86.7724181,54.5478343 C86.2410987,54.6533975 85.6428332,54.705646 84.978684,54.705646 C84.1057263,54.705646 83.256678,54.5910193 82.4304764,54.3622991 C81.6053375,54.1335789 80.8742421,53.7294532 80.2387842,53.1483226 C79.6027949,52.5666588 79.0906031,51.7861311 78.701146,50.8046069 C78.3122202,49.8236158 78.1177573,48.5813825 78.1177573,47.0757744 C78.1177573,45.8569995 78.2739652,44.7763099 78.5874436,43.8326391 C78.9003907,42.8900346 79.3419171,42.0945788 79.9114914,41.4473379 C80.4805345,40.7995639 81.1590293,40.3085352 81.9469758,39.9753181 C82.7343911,39.642101 83.6121306,39.4752259 84.5801945,39.4752259 C85.6051095,39.4752259 86.521104,39.656496 87.3276468,40.018503 C88.1341896,40.3805101 88.812153,40.8758039 89.3631312,41.5043847 C89.913578,42.1324322 90.331195,42.8804379 90.6159822,43.7468024 C90.9007694,44.6136999 91.0426316,45.5621691 91.0426316,46.5906103 L91.0426316,48.2481654 L81.7615454,48.2481654 L81.7615454,48.2481654 Z M87.3988436,45.7045194 C87.3797161,45.380899 87.3467743,45.0993972 87.2989555,44.8621466 C87.2511368,44.6232966 87.1709076,44.3711179 87.0566739,44.1045442 C86.8483967,43.665764 86.5397002,43.2994917 86.1321783,43.0041281 C85.7235937,42.7092976 85.20662,42.5616158 84.5801945,42.5616158 C83.9543003,42.5616158 83.4362639,42.7092976 83.028742,43.0041281 C82.6212201,43.2994917 82.3125235,43.665764 82.1031837,44.1045442 C81.9894814,44.3711179 81.9087208,44.6232966 81.8614334,44.8621466 C81.8136147,45.0993972 81.7812042,45.380899 81.7615454,45.7045194 L87.3988436,45.7045194 L87.3988436,45.7045194 Z M104.816023,54.5339725 L104.816023,45.5333791 C104.816023,45.0188919 104.745357,44.5902415 104.602964,44.2474277 C104.46057,43.904614 104.270889,43.6284437 104.033389,43.4183836 C103.796421,43.2093898 103.53023,43.0569097 103.23641,42.9620095 C102.94206,42.866043 102.653022,42.8185928 102.368235,42.8185928 C102.082916,42.8185928 101.79441,42.866043 101.499528,42.9620095 C101.205708,43.0569097 100.939517,43.2093898 100.702549,43.4183836 C100.465049,43.6284437 100.270586,43.904614 100.11916,44.2474277 C99.9672026,44.5902415 99.8912239,45.0188919 99.8912239,45.5333791 L99.8912239,54.5339725 L96.1895221,54.5339725 L96.1895221,39.6468993 L99.8056815,39.6468993 L99.8056815,41.0186874 C100.299277,40.5036671 100.868852,40.1182016 101.514405,39.8612245 C102.158895,39.6037144 102.823575,39.4752259 103.506852,39.4752259 C104.24698,39.4752259 104.91166,39.5898526 105.499831,39.8185728 C106.08747,40.047293 106.590629,40.3709134 107.008246,40.7899672 C107.616076,41.3993546 108.018816,42.051927 108.218592,42.7471511 C108.417837,43.4423752 108.517193,44.1994445 108.517193,45.0188919 L108.517193,54.5339725 L104.816023,54.5339725 L104.816023,54.5339725 Z M118.874733,54.5339725 C118.115477,54.5339725 117.466205,54.4097492 116.924791,54.1623688 C116.383376,53.9149885 115.937599,53.591368 115.586929,53.1909744 C115.235726,52.7905807 114.979631,52.3384718 114.818641,51.8330481 C114.656588,51.3292239 114.575828,50.8099383 114.575828,50.2762579 L114.575828,42.9044296 L113.01003,42.9044296 L113.01003,40.0755498 L114.575828,40.0755498 L114.575828,35.6754848 L118.276467,35.6754848 L118.276467,40.0755498 L120.896403,40.0755498 L120.896403,42.9044296 L118.276467,42.9044296 L118.276467,50.0475376 C118.276467,50.9432252 118.704179,51.3905358 119.558541,51.3905358 L120.896403,51.3905358 L120.896403,54.5339725 L118.874733,54.5339725 L118.874733,54.5339725 Z M134.299996,54.5339725 L138.001698,54.5339725 L138.001698,39.6468993 L134.299996,39.6468993 L134.299996,54.5339725 Z M148.501099,54.5339725 C147.741844,54.5339725 147.09204,54.4097492 146.551157,54.1623688 C146.009743,53.9149885 145.563966,53.591368 145.212764,53.1909744 C144.862093,52.7905807 144.605997,52.3384718 144.444476,51.8330481 C144.282955,51.3292239 144.202194,50.8099383 144.202194,50.2762579 L144.202194,42.9044296 L142.635865,42.9044296 L142.635865,40.0755498 L144.202194,40.0755498 L144.202194,35.6754848 L147.902833,35.6754848 L147.902833,40.0755498 L150.522769,40.0755498 L150.522769,42.9044296 L147.902833,42.9044296 L147.902833,50.0475376 C147.902833,50.9432252 148.330014,51.3905358 149.184907,51.3905358 L150.522769,51.3905358 L150.522769,54.5339725 L148.501099,54.5339725 L148.501099,54.5339725 Z" id="Fill-12" fill="#1A1918"></path>
        <path d="M136.225497,31.8709454 C137.534668,31.8709454 138.596244,32.9361737 138.596244,34.2498488 C138.596244,35.5635238 137.534668,36.6287522 136.225497,36.6287522 C134.916326,36.6287522 133.855281,35.5635238 133.855281,34.2498488 C133.855281,32.9361737 134.916326,31.8709454 136.225497,31.8709454" id="Fill-13" fill="#1A1918"></path>
    </g>
</svg>